<svg xmlns="http://www.w3.org/2000/svg" xmlns:svg="http://www.w3.org/2000/svg" version="1.1" width="182.00" height="163.82" preserveAspectRatio="xMidYMid meet" viewBox="329.91 448.09 182.00 163.82"><defs><clipPath id="clippath15" transform=""><path d="M 0 841.89 L 595.276 841.89 L 595.276 0 L 0 0 Z" fill="none" clip-rule="nonzero"></path></clipPath><pattern id="shading0" patternUnits="userSpaceOnUse" width="8.927938000000001" height="8.927938000000001" x="-6538.55" y="5306.87"><g clip-path="url(#clippath15)"><g transform="matrix(0.31 0 0 0.31 -6529.622062 5305.3076)"><path d="M 0 0 C 2.783 0 5.04 2.257 5.04 5.04 C 5.04 7.824 2.783 10.08 0 10.08 C -2.784 10.08 -5.04 7.824 -5.04 5.04 C -5.04 2.257 -2.784 0 0 0" fill="#231815" fill-opacity="1"></path></g></g></pattern><clipPath id="clippath16" transform=""><path d="M 0 841.89 L 595.276 841.89 L 595.276 0 L 0 0 Z" fill="none" clip-rule="nonzero"></path></clipPath><clipPath id="clippath17" transform=""><path d="M 0 841.89 L 595.276 841.89 L 595.276 0 L 0 0 Z" fill="none" clip-rule="nonzero"></path></clipPath><clipPath id="clippath18" transform=""><path d="M 0 841.89 L 595.276 841.89 L 595.276 0 L 0 0 Z" fill="none" clip-rule="nonzero"></path></clipPath></defs><g transform="matrix(1 0 0 -1 0 841.89)"><g clip-path="url(#clippath15)"><g transform="translate(414.7672 364.7454)"><path d="M 0 0 L 0.888 0 C 1.379 0 1.776 0.398 1.776 0.888 L 1.776 1.776 C 1.776 2.267 1.379 2.665 0.888 2.665 L 0 2.665 C -0.491 2.665 -0.888 2.267 -0.888 1.776 L -0.888 0.888 C -0.888 0.398 -0.491 0 0 0" fill="#64add4" fill-opacity="1"></path></g></g><g clip-path="url(#clippath15)"><g transform="translate(401.4432 364.7454)"><path d="M 0 0 L 0.888 0 C 1.379 0 1.776 0.398 1.776 0.888 L 1.776 1.776 C 1.776 2.267 1.379 2.665 0.888 2.665 L 0 2.665 C -0.491 2.665 -0.888 2.267 -0.888 1.776 L -0.888 0.888 C -0.888 0.398 -0.491 0 0 0" fill="#64add4" fill-opacity="1"></path></g></g><g clip-path="url(#clippath15)"><g transform="translate(388.1192 364.7454)"><path d="M 0 0 L 0.888 0 C 1.379 0 1.776 0.398 1.776 0.888 L 1.776 1.776 C 1.776 2.267 1.379 2.665 0.888 2.665 L 0 2.665 C -0.491 2.665 -0.888 2.267 -0.888 1.776 L -0.888 0.888 C -0.888 0.398 -0.491 0 0 0" fill="#64add4" fill-opacity="1"></path></g></g><g clip-path="url(#clippath15)"><g transform="translate(394.1149 357.4172)"><path d="M 0 0 L 2.221 0 C 2.711 0 3.109 0.398 3.109 0.888 L 3.109 3.109 C 3.109 3.599 2.711 3.997 2.221 3.997 L 0 3.997 C -0.491 3.997 -0.888 3.599 -0.888 3.109 L -0.888 0.888 C -0.888 0.398 -0.491 0 0 0" fill="#64add4" fill-opacity="1"></path></g></g><g clip-path="url(#clippath15)"><g transform="translate(387.4529 350.7552)"><path d="M 0 0 L 2.221 0 C 2.711 0 3.109 0.398 3.109 0.888 L 3.109 3.109 C 3.109 3.599 2.711 3.997 2.221 3.997 L 0 3.997 C -0.49 3.997 -0.888 3.599 -0.888 3.109 L -0.888 0.888 C -0.888 0.398 -0.49 0 0 0" fill="#64add4" fill-opacity="1"></path></g></g><g clip-path="url(#clippath15)"><g transform="translate(380.7911 344.0933)"><path d="M 0 0 L 2.221 0 C 2.711 0 3.109 0.398 3.109 0.888 L 3.109 3.109 C 3.109 3.599 2.711 3.997 2.221 3.997 L 0 3.997 C -0.491 3.997 -0.888 3.599 -0.888 3.109 L -0.888 0.888 C -0.888 0.398 -0.491 0 0 0" fill="#64add4" fill-opacity="1"></path></g></g><g clip-path="url(#clippath15)"><g transform="translate(376.3497 341.4285)"><path d="M 0 0 L -2.221 0 C -2.711 0 -3.109 -0.398 -3.109 -0.888 L -3.109 -3.109 C -3.109 -3.599 -2.711 -3.997 -2.221 -3.997 L 0 -3.997 C 0.491 -3.997 0.888 -3.599 0.888 -3.109 L 0.888 -0.888 C 0.888 -0.398 0.491 0 0 0" fill="#64add4" fill-opacity="1"></path></g></g><g clip-path="url(#clippath15)"><g transform="translate(376.3497 328.1046)"><path d="M 0 0 L -2.221 0 C -2.711 0 -3.109 -0.398 -3.109 -0.888 L -3.109 -3.109 C -3.109 -3.599 -2.711 -3.997 -2.221 -3.997 L 0 -3.997 C 0.491 -3.997 0.888 -3.599 0.888 -3.109 L 0.888 -0.888 C 0.888 -0.398 0.491 0 0 0" fill="#64add4" fill-opacity="1"></path></g></g><g clip-path="url(#clippath15)"><g transform="translate(407.4389 357.4172)"><path d="M 0 0 L 2.221 0 C 2.711 0 3.109 0.398 3.109 0.888 L 3.109 3.109 C 3.109 3.599 2.711 3.997 2.221 3.997 L 0 3.997 C -0.491 3.997 -0.888 3.599 -0.888 3.109 L -0.888 0.888 C -0.888 0.398 -0.491 0 0 0" fill="#64add4" fill-opacity="1"></path></g></g><g clip-path="url(#clippath15)"><g transform="translate(400.7762 350.7552)"><path d="M 0 0 L 2.221 0 C 2.711 0 3.109 0.398 3.109 0.888 L 3.109 3.109 C 3.109 3.599 2.711 3.997 2.221 3.997 L 0 3.997 C -0.49 3.997 -0.888 3.599 -0.888 3.109 L -0.888 0.888 C -0.888 0.398 -0.49 0 0 0" fill="#64add4" fill-opacity="1"></path></g></g><g clip-path="url(#clippath15)"><g transform="translate(393.4484 343.4271)"><path d="M 0 0 L 3.553 0 C 4.044 0 4.441 0.398 4.441 0.888 L 4.441 4.441 C 4.441 4.932 4.044 5.33 3.553 5.33 L 0 5.33 C -0.491 5.33 -0.888 4.932 -0.888 4.441 L -0.888 0.888 C -0.888 0.398 -0.491 0 0 0" fill="#64add4" fill-opacity="1"></path></g></g><g clip-path="url(#clippath15)"><g transform="translate(386.7868 336.7656)"><path d="M 0 0 L 3.553 0 C 4.044 0 4.441 0.398 4.441 0.888 L 4.441 4.441 C 4.441 4.932 4.044 5.33 3.553 5.33 L 0 5.33 C -0.491 5.33 -0.888 4.932 -0.888 4.441 L -0.888 0.888 C -0.888 0.398 -0.491 0 0 0" fill="#64add4" fill-opacity="1"></path></g></g><g clip-path="url(#clippath15)"><g transform="translate(421.429 358.0834)"><path d="M 0 0 L 0.888 0 C 1.379 0 1.777 0.398 1.777 0.888 L 1.777 1.776 C 1.777 2.267 1.379 2.665 0.888 2.665 L 0 2.665 C -0.49 2.665 -0.888 2.267 -0.888 1.776 L -0.888 0.888 C -0.888 0.398 -0.49 0 0 0" fill="#64add4" fill-opacity="1"></path></g></g><g clip-path="url(#clippath15)"><g transform="translate(414.1009 350.7552)"><path d="M 0 0 L 2.221 0 C 2.711 0 3.109 0.398 3.109 0.888 L 3.109 3.109 C 3.109 3.599 2.711 3.997 2.221 3.997 L 0 3.997 C -0.491 3.997 -0.888 3.599 -0.888 3.109 L -0.888 0.888 C -0.888 0.398 -0.491 0 0 0" fill="#64add4" fill-opacity="1"></path></g></g><g clip-path="url(#clippath15)"><g transform="translate(420.0948 343.4266)"><path d="M 0 0 L 3.554 0 C 4.045 0 4.443 0.398 4.443 0.888 L 4.443 4.443 C 4.443 4.933 4.045 5.331 3.554 5.331 L 0 5.331 C -0.491 5.331 -0.888 4.933 -0.888 4.443 L -0.888 0.888 C -0.888 0.398 -0.491 0 0 0" fill="#64add4" fill-opacity="1"></path></g></g><g clip-path="url(#clippath15)"><g transform="translate(374.7952 351.4214)"><path d="M 0 0 L 0.888 0 C 1.379 0 1.777 0.398 1.777 0.888 L 1.777 1.777 C 1.777 2.267 1.379 2.665 0.888 2.665 L 0 2.665 C -0.491 2.665 -0.888 2.267 -0.888 1.777 L -0.888 0.888 C -0.888 0.398 -0.491 0 0 0" fill="#64add4" fill-opacity="1"></path></g></g><g clip-path="url(#clippath15)"><g transform="translate(369.0213 347.4243)"><path d="M 0 0 L -0.888 0 C -1.379 0 -1.777 -0.398 -1.777 -0.888 L -1.777 -1.776 C -1.777 -2.267 -1.379 -2.665 -0.888 -2.665 L 0 -2.665 C 0.49 -2.665 0.888 -2.267 0.888 -1.776 L 0.888 -0.888 C 0.888 -0.398 0.49 0 0 0" fill="#64add4" fill-opacity="1"></path></g></g><g clip-path="url(#clippath15)"><g transform="translate(406.7728 343.4266)"><path d="M 0 0 L 3.554 0 C 4.044 0 4.442 0.398 4.442 0.888 L 4.442 4.442 C 4.442 4.933 4.044 5.33 3.554 5.33 L 0 5.33 C -0.49 5.33 -0.888 4.933 -0.888 4.442 L -0.888 0.888 C -0.888 0.398 -0.49 0 0 0" fill="#64add4" fill-opacity="1"></path></g></g><g clip-path="url(#clippath15)"><g transform="translate(426.7584 336.7651)"><path d="M 0 0 L 3.553 0 C 4.044 0 4.441 0.398 4.441 0.888 L 4.441 4.441 C 4.441 4.932 4.044 5.33 3.553 5.33 L 0 5.33 C -0.49 5.33 -0.888 4.932 -0.888 4.441 L -0.888 0.888 C -0.888 0.398 -0.49 0 0 0" fill="#64add4" fill-opacity="1"></path></g></g><g clip-path="url(#clippath15)"><g transform="translate(369.0213 334.1003)"><path d="M 0 0 L -0.888 0 C -1.379 0 -1.777 -0.398 -1.777 -0.888 L -1.777 -1.777 C -1.777 -2.267 -1.379 -2.665 -0.888 -2.665 L 0 -2.665 C 0.49 -2.665 0.888 -2.267 0.888 -1.777 L 0.888 -0.888 C 0.888 -0.398 0.49 0 0 0" fill="#64add4" fill-opacity="1"></path></g></g><g clip-path="url(#clippath15)"><g transform="translate(380.0906 330.1374)"><path d="M 0 0 L 3.553 0 C 4.044 0 4.441 0.397 4.441 0.888 L 4.441 4.441 C 4.441 4.932 4.044 5.33 3.553 5.33 L 0 5.33 C -0.491 5.33 -0.888 4.932 -0.888 4.441 L -0.888 0.888 C -0.888 0.397 -0.491 0 0 0" fill="#64add4" fill-opacity="1"></path></g></g><g clip-path="url(#clippath15)"><g transform="translate(369.0213 320.7764)"><path d="M 0 0 L 0 0 L -0.888 0 L -0.888 0 C -1.379 0 -1.777 -0.398 -1.777 -0.888 L -1.777 -1.777 C -1.777 -2.267 -1.379 -2.665 -0.888 -2.665 L -0.888 -2.665 L 0 -2.665 C 0.49 -2.665 0.888 -2.267 0.888 -1.777 L 0.888 -0.888 C 0.888 -0.398 0.49 0 0 0" fill="#64add4" fill-opacity="1"></path></g></g><g clip-path="url(#clippath15)"><g transform="translate(383.6778 322.1088)"><path d="M 0 0 L -3.553 0 C -4.044 0 -4.441 -0.398 -4.441 -0.888 L -4.441 -4.441 C -4.441 -4.932 -4.044 -5.33 -3.553 -5.33 L 0 -5.33 C 0.491 -5.33 0.888 -4.932 0.888 -4.441 L 0.888 -0.888 C 0.888 -0.398 0.491 0 0 0" fill="#64add4" fill-opacity="1"></path></g></g><g clip-path="url(#clippath15)"><g transform="translate(434.0915 344.0933)"><path d="M 0 0 L 2.221 0 C 2.711 0 3.109 0.398 3.109 0.888 L 3.109 3.109 C 3.109 3.6 2.711 3.997 2.221 3.997 L 0 3.997 C -0.491 3.997 -0.888 3.6 -0.888 3.109 L -0.888 0.888 C -0.888 0.398 -0.491 0 0 0" fill="#64add4" fill-opacity="1"></path></g></g><g clip-path="url(#clippath15)"><g transform="translate(427.4249 350.7552)"><path d="M 0 0 L 2.221 0 C 2.711 0 3.109 0.398 3.109 0.888 L 3.109 3.109 C 3.109 3.599 2.711 3.997 2.221 3.997 L 0 3.997 C -0.491 3.997 -0.888 3.599 -0.888 3.109 L -0.888 0.888 C -0.888 0.398 -0.491 0 0 0" fill="#64add4" fill-opacity="1"></path></g></g><g clip-path="url(#clippath15)"><g transform="translate(383.0213 308.1086)"><path d="M 0 0 L -2.221 0 C -2.711 0 -3.109 -0.398 -3.109 -0.888 L -3.109 -3.109 C -3.109 -3.599 -2.711 -3.997 -2.221 -3.997 L 0 -3.997 C 0.491 -3.997 0.888 -3.599 0.888 -3.109 L 0.888 -0.888 C 0.888 -0.398 0.491 0 0 0" fill="#64add4" fill-opacity="1"></path></g></g><g clip-path="url(#clippath15)"><g transform="translate(381.4572 358.0834)"><path d="M 0 0 L 0.888 0 C 1.379 0 1.776 0.398 1.776 0.888 L 1.776 1.776 C 1.776 2.267 1.379 2.665 0.888 2.665 L 0 2.665 C -0.491 2.665 -0.888 2.267 -0.888 1.776 L -0.888 0.888 C -0.888 0.398 -0.491 0 0 0" fill="#64add4" fill-opacity="1"></path></g></g><g clip-path="url(#clippath15)"><g transform="translate(424.5361 324.754)"><path d="M 0 0 C -0.01 -0.358 -0.302 -0.646 -0.662 -0.647 L -4.662 -0.647 C -5.029 -0.646 -5.326 -0.348 -5.326 0.019 L -5.326 4.017 C -5.326 4.385 -5.028 4.683 -4.66 4.683 L -0.664 4.683 C -0.304 4.685 -0.008 4.39 0 4.036 Z M -7.328 -5.976 C -7.328 -6.344 -7.626 -6.642 -7.994 -6.642 L -10.657 -6.642 C -11.025 -6.642 -11.323 -6.344 -11.323 -5.976 L -11.323 -3.311 C -11.323 -2.944 -11.025 -2.646 -10.657 -2.645 L -7.993 -2.645 C -7.626 -2.646 -7.328 -2.944 -7.328 -3.311 Z M -13.324 0.019 C -13.324 -0.348 -13.621 -0.646 -13.988 -0.647 L -17.988 -0.647 C -18.355 -0.646 -18.652 -0.348 -18.652 0.019 L -18.652 3.351 L -18.652 3.35 C -18.652 3.718 -18.354 4.016 -17.986 4.016 L -13.99 4.016 C -13.622 4.016 -13.324 3.718 -13.324 3.35 L -13.323 3.356 Z M -14.655 -13.304 C -14.655 -13.672 -14.953 -13.971 -15.321 -13.971 L -17.319 -13.971 C -17.686 -13.971 -17.984 -13.672 -17.984 -13.304 L -17.984 -10.64 C -17.984 -10.272 -17.686 -9.974 -17.319 -9.973 L -15.321 -9.973 C -14.953 -9.974 -14.655 -10.272 -14.655 -10.64 Z M -20.652 -6.642 C -20.652 -7.008 -20.946 -7.304 -21.311 -7.308 L -24.655 -7.308 C -25.018 -7.304 -25.312 -7.01 -25.314 -6.646 L -25.314 -3.308 C -25.312 -2.942 -25.015 -2.646 -24.648 -2.645 L -21.318 -2.645 C -20.95 -2.646 -20.652 -2.944 -20.652 -3.311 Z M -27.313 -13.971 C -27.313 -14.338 -27.61 -14.636 -27.977 -14.637 L -31.978 -14.637 C -32.345 -14.636 -32.642 -14.338 -32.642 -13.971 L -32.642 -9.979 C -32.642 -9.611 -32.344 -9.313 -31.976 -9.313 L -27.979 -9.313 C -27.612 -9.313 -27.313 -9.611 -27.313 -9.979 Z M 8.635 5.346 L 12.439 5.349 C 12.929 5.349 13.327 5.747 13.327 6.237 L 13.327 9.79 C 13.327 10.281 12.929 10.679 12.438 10.679 L 8.885 10.679 C 8.395 10.679 7.998 10.281 7.997 9.791 L 7.994 6.015 L 7.994 6.015 C 7.994 5.648 7.696 5.35 7.328 5.349 L 1.334 5.349 C 0.968 5.35 0.669 5.648 0.669 6.015 L 0.669 10.457 C 0.669 10.947 0.271 11.345 -0.219 11.345 L -5.105 11.345 C -5.595 11.345 -5.993 10.947 -5.993 10.457 L -5.995 6.014 C -5.995 5.65 -6.287 5.355 -6.65 5.349 L -11.334 5.349 C -11.697 5.355 -11.989 5.65 -11.989 6.014 L -11.989 10.677 C -11.989 11.045 -11.691 11.344 -11.323 11.344 L -6.882 11.346 C -6.392 11.346 -5.994 11.743 -5.994 12.234 L -5.994 17.119 C -5.994 17.61 -6.392 18.008 -6.882 18.008 L -11.768 18.008 C -12.258 18.008 -12.656 17.61 -12.656 17.119 L -12.656 12.677 C -12.656 12.309 -12.954 12.011 -13.322 12.011 L -18.653 12.011 C -19.021 12.011 -19.319 12.309 -19.319 12.677 L -19.319 17.119 C -19.319 17.609 -19.717 18.007 -20.207 18.007 L -25.093 18.007 C -25.583 18.007 -25.981 17.609 -25.981 17.119 L -25.981 12.233 C -25.981 11.743 -25.583 11.345 -25.093 11.345 L -20.652 11.344 C -20.284 11.344 -19.986 11.045 -19.986 10.677 L -19.986 6.014 C -19.986 5.65 -20.278 5.355 -20.641 5.349 L -25.325 5.349 C -25.687 5.355 -25.98 5.65 -25.98 6.014 L -25.98 10.455 C -25.98 10.946 -26.378 11.344 -26.868 11.344 L -31.754 11.344 C -32.245 11.344 -32.642 10.946 -32.642 10.455 L -32.642 5.57 C -32.642 5.079 -32.245 4.682 -31.754 4.682 L -27.313 4.681 C -26.945 4.681 -26.647 4.383 -26.647 4.015 L -26.647 -0.652 C -26.647 -1.02 -26.945 -1.318 -27.313 -1.318 L -31.976 -1.318 C -32.344 -1.318 -32.642 -1.02 -32.642 -0.652 L -32.642 3.795 C -32.642 4.285 -33.039 4.683 -33.53 4.683 L -38.415 4.683 C -38.906 4.683 -39.304 4.285 -39.304 3.795 L -39.304 -1.091 C -39.304 -1.581 -38.906 -1.979 -38.415 -1.979 L -33.974 -1.979 C -33.607 -1.979 -33.309 -2.277 -33.308 -2.644 L -33.308 -7.975 C -33.308 -8.343 -33.606 -8.641 -33.974 -8.641 L -38.416 -8.641 C -38.907 -8.641 -39.305 -9.039 -39.305 -9.529 L -39.305 -14.415 C -39.305 -14.905 -38.907 -15.303 -38.416 -15.303 L -33.974 -15.303 C -33.607 -15.303 -33.309 -15.601 -33.308 -15.968 L -33.309 -21.965 C -33.309 -22.333 -33.607 -22.632 -33.975 -22.632 L -37.75 -22.631 C -38.241 -22.631 -38.639 -23.029 -38.639 -23.519 L -38.639 -27.073 C -38.639 -27.563 -38.241 -27.961 -37.75 -27.961 L -34.197 -27.961 C -33.707 -27.961 -33.309 -27.563 -33.309 -27.073 L -33.309 -23.297 C -33.309 -22.938 -33.024 -22.648 -32.668 -22.634 L -26.202 -22.631 C -25.711 -22.631 -25.314 -22.233 -25.314 -21.743 L -25.314 -17.298 C -25.312 -16.931 -25.015 -16.635 -24.648 -16.635 L -21.316 -16.635 C -20.948 -16.635 -20.65 -16.933 -20.65 -17.301 L -20.65 -21.965 C -20.65 -22.331 -20.945 -22.628 -21.311 -22.631 L -24.426 -22.631 C -24.916 -22.631 -25.314 -23.029 -25.314 -23.519 L -25.314 -27.073 C -25.314 -27.563 -24.916 -27.961 -24.426 -27.961 L -20.873 -27.961 C -20.382 -27.961 -19.984 -27.563 -19.984 -27.073 L -19.984 -23.964 C -19.984 -23.596 -19.686 -23.298 -19.318 -23.298 L -12.656 -23.298 C -12.289 -23.298 -11.992 -23.594 -11.99 -23.961 L -11.99 -27.073 C -11.99 -27.563 -11.592 -27.961 -11.101 -27.961 L -7.548 -27.961 C -7.058 -27.961 -6.66 -27.563 -6.66 -27.073 L -6.66 -23.519 C -6.66 -23.029 -7.058 -22.631 -7.548 -22.631 L -10.663 -22.631 C -11.028 -22.628 -11.323 -22.331 -11.323 -21.965 L -11.323 -17.968 C -11.323 -17.6 -11.025 -17.302 -10.657 -17.302 L -6.661 -17.302 C -6.293 -17.302 -5.995 -17.6 -5.995 -17.968 L -5.993 -21.077 C -5.993 -21.567 -5.596 -21.965 -5.105 -21.965 L -0.22 -21.965 C 0.271 -21.965 0.669 -21.567 0.669 -21.077 L 0.669 -16.191 C 0.669 -15.701 0.271 -15.303 -0.22 -15.303 L -3.332 -15.303 C -3.699 -15.302 -3.996 -15.004 -3.996 -14.637 L -3.996 -10.64 C -3.996 -10.272 -3.698 -9.973 -3.33 -9.973 L 0 -9.973 C 0.368 -9.973 0.666 -10.272 0.666 -10.64 L 0.668 -14.415 C 0.668 -14.905 1.066 -15.303 1.556 -15.303 L 6.442 -15.303 C 6.932 -15.303 7.33 -14.905 7.33 -14.415 L 7.33 -9.529 C 7.33 -9.039 6.932 -8.641 6.442 -8.641 L 2.667 -8.641 C 2.299 -8.641 2.001 -8.343 2.001 -7.976 L 2.001 -3.311 C 2.001 -2.944 2.299 -2.646 2.667 -2.645 L 7.333 -2.646 C 7.692 -2.646 7.983 -2.931 7.996 -3.287 L 7.997 -7.087 C 7.997 -7.578 8.395 -7.975 8.885 -7.975 L 12.438 -7.975 C 12.929 -7.975 13.327 -7.577 13.327 -7.087 L 13.327 -3.534 C 13.327 -3.043 12.929 -2.645 12.438 -2.645 L 8.664 -2.646 C 8.297 -2.646 7.999 -2.348 7.998 -1.98 L 7.994 4.683 C 7.995 5.042 8.279 5.333 8.635 5.346" fill="#64add4" fill-opacity="1"></path></g></g><g clip-path="url(#clippath15)"><g transform="translate(375.6826 314.1148)"><path d="M 0 0 L -0.888 0 C -1.256 0 -1.572 -0.224 -1.707 -0.543 C -1.752 -0.649 -1.777 -0.766 -1.777 -0.889 L -1.777 -1.777 C -1.777 -2.267 -1.379 -2.665 -0.889 -2.665 L 0 -2.665 C 0.368 -2.665 0.684 -2.441 0.818 -2.122 C 0.863 -2.016 0.888 -1.899 0.888 -1.776 L 0.888 -0.888 C 0.888 -0.398 0.491 0 0 0" fill="#64add4" fill-opacity="1"></path></g></g><g clip-path="url(#clippath15)"><g transform="translate(416.9833 268.8169)"><path d="M 0 0 L -3.553 0 C -4.044 0 -4.441 -0.398 -4.441 -0.888 L -4.441 -4.441 C -4.441 -4.932 -4.044 -5.33 -3.553 -5.33 L 0 -5.33 C 0.491 -5.33 0.888 -4.932 0.888 -4.441 L 0.888 -0.888 C 0.888 -0.398 0.491 0 0 0 M 18.657 -21.321 L 17.768 -21.321 C 17.278 -21.321 16.88 -21.719 16.88 -22.21 L 16.88 -23.098 C 16.88 -23.588 17.278 -23.986 17.768 -23.986 L 18.657 -23.986 C 19.147 -23.986 19.545 -23.588 19.545 -23.098 L 19.545 -22.21 C 19.545 -21.719 19.147 -21.321 18.657 -21.321 M 25.32 -14.66 L 24.432 -14.66 C 23.941 -14.66 23.543 -15.058 23.543 -15.548 L 23.543 -16.437 C 23.543 -16.927 23.941 -17.325 24.432 -17.325 L 25.32 -17.325 C 25.81 -17.325 26.208 -16.927 26.208 -16.437 L 26.208 -15.548 C 26.208 -15.058 25.81 -14.66 25.32 -14.66 M 20.652 7.326 L 15.767 7.326 C 15.276 7.326 14.878 6.929 14.878 6.438 L 14.878 1.962 C 14.86 1.611 14.572 1.33 14.216 1.33 L 8.883 1.329 C 8.515 1.329 8.217 1.628 8.217 1.996 L 8.217 6.438 C 8.217 6.929 7.819 7.326 7.328 7.326 L 2.443 7.326 C 1.952 7.326 1.555 6.929 1.555 6.438 L 1.555 1.553 C 1.555 1.062 1.952 0.664 2.443 0.664 L 6.896 0.664 C 7.259 0.659 7.553 0.364 7.553 -0.001 L 7.555 -6 C 7.554 -6.36 7.269 -6.65 6.913 -6.664 L 3.113 -6.664 C 2.623 -6.664 2.225 -7.062 2.225 -7.553 L 2.225 -11.106 C 2.225 -11.596 2.623 -11.994 3.113 -11.994 L 6.666 -11.994 C 7.157 -11.994 7.555 -11.596 7.555 -11.106 L 7.555 -7.332 L 7.555 -7.332 C 7.555 -6.965 7.853 -6.667 8.22 -6.666 L 14.66 -6.665 C 15.151 -6.665 15.549 -6.267 15.549 -5.777 L 15.549 0.002 C 15.551 0.368 15.848 0.664 16.215 0.664 L 20.652 0.664 C 21.143 0.664 21.54 1.062 21.54 1.553 L 21.54 6.438 C 21.54 6.929 21.143 7.326 20.652 7.326 M 25.986 -0.669 L 23.765 -0.669 C 23.275 -0.669 22.877 -1.067 22.877 -1.557 L 22.877 -3.778 C 22.877 -4.269 23.275 -4.666 23.765 -4.666 L 25.986 -4.666 C 26.477 -4.666 26.874 -4.269 26.874 -3.778 L 26.874 -1.557 C 26.874 -1.067 26.477 -0.669 25.986 -0.669 M 19.323 -7.331 L 17.102 -7.331 C 16.612 -7.331 16.214 -7.729 16.214 -8.22 L 16.214 -10.44 C 16.214 -10.931 16.612 -11.329 17.102 -11.329 L 19.323 -11.329 C 19.814 -11.329 20.211 -10.931 20.211 -10.44 L 20.211 -8.22 C 20.211 -7.729 19.814 -7.331 19.323 -7.331 M 12.661 -13.992 L 10.441 -13.992 C 9.95 -13.992 9.552 -14.39 9.552 -14.88 L 9.552 -17.101 C 9.552 -17.592 9.95 -17.989 10.441 -17.989 L 12.661 -17.989 C 13.152 -17.989 13.55 -17.592 13.55 -17.101 L 13.55 -14.88 C 13.55 -14.39 13.152 -13.992 12.661 -13.992 M -1.329 -14.662 L -2.217 -14.662 C -2.708 -14.662 -3.105 -15.059 -3.105 -15.55 L -3.105 -16.438 C -3.105 -16.929 -2.708 -17.327 -2.217 -17.327 L -1.329 -17.327 C -0.838 -17.327 -0.44 -16.929 -0.44 -16.438 L -0.44 -15.55 C -0.44 -15.059 -0.838 -14.662 -1.329 -14.662 M 6.221 -22.211 L 6.221 -23.1 C 6.221 -23.59 5.823 -23.988 5.333 -23.988 L 4.444 -23.988 C 3.954 -23.988 3.556 -23.59 3.556 -23.1 L 3.556 -22.211 C 3.556 -21.721 3.954 -21.323 4.444 -21.323 L 5.333 -21.323 C 5.823 -21.323 6.221 -21.721 6.221 -22.211" fill="#231815" fill-opacity="1"></path></g></g><g clip-path="url(#clippath18)"><g transform="translate(354.4419 235.3883)"><path d="M 0 0 L 141.732 141.732" fill="none" stroke="#64add4" stroke-opacity="1" stroke-miterlimit="0" stroke-linecap="" stroke-linejoin="" stroke-width="0.5px" stroke-dasharray="" stroke-dashoffset="0px"></path></g></g><g clip-path="url(#clippath18)"><g transform="translate(467.3961 310.7841)"><path d="M 0 0 L 2.221 0 C 2.711 0 3.109 0.398 3.109 0.888 L 3.109 3.109 C 3.109 3.599 2.711 3.997 2.221 3.997 L 0 3.997 C -0.491 3.997 -0.888 3.599 -0.888 3.109 L -0.888 0.888 C -0.888 0.398 -0.491 0 0 0" fill="#1e4b6b" fill-opacity="1"></path></g></g><g clip-path="url(#clippath18)"><g transform="translate(462.9554 281.4705)"><path d="M 0 0 L -2.221 0 C -2.711 0 -3.109 -0.398 -3.109 -0.888 L -3.109 -3.109 C -3.109 -3.599 -2.711 -3.997 -2.221 -3.997 L 0 -3.997 C 0.491 -3.997 0.888 -3.599 0.888 -3.109 L 0.888 -0.888 C 0.888 -0.398 0.491 0 0 0" fill="#1e4b6b" fill-opacity="1"></path></g></g><g clip-path="url(#clippath18)"><g transform="translate(476.2791 294.7944)"><path d="M 0 0 L -2.221 0 C -2.711 0 -3.109 -0.398 -3.109 -0.888 L -3.109 -3.109 C -3.109 -3.599 -2.711 -3.997 -2.221 -3.997 L 0 -3.997 C 0.491 -3.997 0.888 -3.599 0.888 -3.109 L 0.888 -0.888 C 0.888 -0.398 0.491 0 0 0" fill="#1e4b6b" fill-opacity="1"></path></g></g><g clip-path="url(#clippath18)"><g transform="translate(465.1752 297.4514)"><path d="M 0 0 C -0.004 -0.364 -0.3 -0.658 -0.665 -0.658 L -4.662 -0.658 C -5.03 -0.658 -5.328 -0.36 -5.328 0.008 L -5.329 4.005 C -5.329 4.373 -5.03 4.671 -4.662 4.671 L -0.666 4.671 C -0.298 4.671 0 4.373 0 4.005 Z M -7.327 -7.32 C -7.327 -7.688 -7.625 -7.986 -7.994 -7.986 L -11.991 -7.986 C -12.359 -7.986 -12.657 -7.688 -12.657 -7.32 L -12.657 -3.323 C -12.657 -2.955 -12.359 -2.657 -11.991 -2.657 L -7.994 -2.657 C -7.625 -2.657 -7.327 -2.955 -7.327 -3.323 Z M 5.774 5.337 L 1.333 5.338 C 0.967 5.338 0.67 5.633 0.667 5.999 L 0.667 11.777 C 0.667 12.268 0.269 12.666 -0.221 12.666 L -6.659 12.666 L -6.659 12.666 C -7.027 12.666 -7.325 12.964 -7.325 13.332 L -7.326 17.108 C -7.326 17.599 -7.724 17.996 -8.215 17.996 L -11.768 17.996 C -12.258 17.996 -12.656 17.599 -12.656 17.108 L -12.656 13.555 C -12.656 13.064 -12.258 12.667 -11.768 12.667 L -7.991 12.666 C -7.632 12.666 -7.341 12.381 -7.328 12.025 L -7.327 7.327 C -7.333 6.964 -7.628 6.67 -7.993 6.67 L -11.991 6.67 C -12.359 6.67 -12.657 6.968 -12.657 7.336 L -12.657 11.777 C -12.657 12.268 -13.055 12.666 -13.545 12.666 L -19.763 12.666 C -20.254 12.666 -20.651 12.268 -20.651 11.777 L -20.651 5.559 C -20.651 5.069 -20.254 4.671 -19.763 4.671 L -15.321 4.671 C -14.954 4.671 -14.656 4.374 -14.655 4.007 L -14.655 -0.001 C -14.661 -0.365 -14.956 -0.658 -15.32 -0.658 L -19.989 -0.658 L -19.989 -0.658 C -20.357 -0.658 -20.655 -0.36 -20.655 0.007 L -20.651 3.783 C -20.651 4.274 -21.049 4.671 -21.54 4.671 L -25.093 4.671 C -25.583 4.671 -25.981 4.274 -25.981 3.783 L -25.981 0.23 C -25.981 -0.261 -25.583 -0.658 -25.093 -0.658 L -21.321 -0.658 C -20.962 -0.658 -20.672 -0.944 -20.658 -1.299 L -20.658 -7.986 L -20.658 -7.986 C -20.658 -8.354 -20.956 -8.652 -21.324 -8.652 L -25.093 -8.653 C -25.583 -8.653 -25.981 -9.05 -25.981 -9.541 L -25.981 -13.094 C -25.981 -13.585 -25.583 -13.982 -25.093 -13.982 L -21.54 -13.982 C -21.049 -13.982 -20.651 -13.585 -20.651 -13.094 L -20.658 -9.318 C -20.658 -8.959 -20.373 -8.668 -20.017 -8.654 L -13.99 -8.653 C -13.624 -8.653 -13.328 -8.948 -13.324 -9.313 L -13.324 -13.76 C -13.324 -14.251 -12.927 -14.648 -12.436 -14.648 L -7.551 -14.648 C -7.06 -14.648 -6.662 -14.251 -6.662 -13.76 L -6.661 -9.319 C -6.661 -8.952 -6.362 -8.653 -5.994 -8.653 L 0.002 -8.652 C 0.362 -8.652 0.652 -8.937 0.666 -9.293 L 0.666 -13.094 C 0.666 -13.585 1.064 -13.983 1.554 -13.983 L 5.108 -13.983 C 5.598 -13.983 5.996 -13.585 5.996 -13.094 L 5.996 -9.541 C 5.996 -9.051 5.598 -8.653 5.108 -8.653 L 1.335 -8.652 L 1.335 -8.652 C 0.967 -8.652 0.669 -8.354 0.668 -7.986 L 0.667 -1.991 C 0.667 -1.624 0.964 -1.327 1.33 -1.325 L 5.774 -1.325 C 6.265 -1.325 6.662 -0.927 6.662 -0.437 L 6.662 4.449 C 6.662 4.939 6.265 5.337 5.774 5.337" fill="#1e4b6b" fill-opacity="1"></path></g></g><g clip-path="url(#clippath18)"><g transform="translate(449.6314 281.4711)"><path d="M 0 0 L -2.221 0 C -2.711 0 -3.109 -0.397 -3.109 -0.888 L -3.109 -3.109 C -3.109 -3.599 -2.711 -3.997 -2.221 -3.997 L 0 -3.997 C 0.491 -3.997 0.888 -3.599 0.888 -3.109 L 0.888 -0.888 C 0.888 -0.397 0.491 0 0 0" fill="#1e4b6b" fill-opacity="1"></path></g></g><g clip-path="url(#clippath18)"><g transform="translate(474.0544 304.1212)"><path d="M 0 0 L 2.221 0 C 2.711 0 3.109 0.398 3.109 0.888 L 3.109 3.109 C 3.109 3.6 2.711 3.997 2.221 3.997 L 0 3.997 C -0.491 3.997 -0.888 3.6 -0.888 3.109 L -0.888 0.888 C -0.888 0.398 -0.491 0 0 0" fill="#1e4b6b" fill-opacity="1"></path></g></g><g clip-path="url(#clippath18)"><g transform="translate(482.2742 300.7902)"><path d="M 0 0 L -0.888 0 C -1.379 0 -1.776 -0.398 -1.776 -0.888 L -1.776 -1.777 C -1.776 -2.267 -1.379 -2.665 -0.888 -2.665 L 0 -2.665 C 0.491 -2.665 0.888 -2.267 0.888 -1.777 L 0.888 -0.888 C 0.888 -0.398 0.491 0 0 0" fill="#1e4b6b" fill-opacity="1"></path></g></g><g clip-path="url(#clippath18)"><g transform="translate(482.2742 287.4665)"><path d="M 0 0 L -0.888 0 C -1.379 0 -1.776 -0.398 -1.776 -0.888 L -1.776 -1.777 C -1.776 -2.267 -1.379 -2.665 -0.888 -2.665 L 0 -2.665 C 0.491 -2.665 0.888 -2.267 0.888 -1.777 L 0.888 -0.888 C 0.888 -0.398 0.491 0 0 0" fill="#1e4b6b" fill-opacity="1"></path></g></g><g clip-path="url(#clippath18)"><g transform="translate(468.9503 274.1428)"><path d="M 0 0 L -0.888 0 C -1.379 0 -1.776 -0.398 -1.776 -0.888 L -1.776 -1.777 C -1.776 -2.267 -1.379 -2.665 -0.888 -2.665 L 0 -2.665 C 0.491 -2.665 0.888 -2.267 0.888 -1.777 L 0.888 -0.888 C 0.888 -0.398 0.491 0 0 0" fill="#1e4b6b" fill-opacity="1"></path></g></g><g clip-path="url(#clippath18)"><g transform="translate(455.6273 274.1428)"><path d="M 0 0 L -0.888 0 C -1.379 0 -1.777 -0.398 -1.777 -0.888 L -1.777 -1.777 C -1.777 -2.267 -1.379 -2.665 -0.888 -2.665 L 0 -2.665 C 0.49 -2.665 0.888 -2.267 0.888 -1.777 L 0.888 -0.888 C 0.888 -0.398 0.49 0 0 0" fill="#1e4b6b" fill-opacity="1"></path></g></g><g clip-path="url(#clippath18)"><g transform="translate(475.613 280.8043)"><path d="M 0 0 L -0.888 0 C -1.379 0 -1.776 -0.398 -1.776 -0.888 L -1.776 -1.777 C -1.776 -2.267 -1.379 -2.665 -0.888 -2.665 L 0 -2.665 C 0.491 -2.665 0.888 -2.267 0.888 -1.777 L 0.888 -0.888 C 0.888 -0.398 0.491 0 0 0" fill="#1e4b6b" fill-opacity="1"></path></g></g><g clip-path="url(#clippath18)"><g transform="translate(410.3252 275.4754)"><path d="M 0 0 L -3.553 0 C -4.044 0 -4.441 -0.397 -4.441 -0.888 L -4.441 -4.441 C -4.441 -4.932 -4.044 -5.33 -3.553 -5.33 L 0 -5.33 C 0.491 -5.33 0.888 -4.932 0.888 -4.441 L 0.888 -0.888 C 0.888 -0.397 0.491 0 0 0" fill="#6a6e71" fill-opacity="1"></path></g></g><g clip-path="url(#clippath18)"><g transform="translate(396.3357 274.8087)"><path d="M 0 0 L -2.221 0 C -2.711 0 -3.109 -0.398 -3.109 -0.888 L -3.109 -3.109 C -3.109 -3.599 -2.711 -3.997 -2.221 -3.997 L 0 -3.997 C 0.491 -3.997 0.888 -3.599 0.888 -3.109 L 0.888 -0.888 C 0.888 -0.398 0.491 0 0 0" fill="#6a6e71" fill-opacity="1"></path></g></g><g clip-path="url(#clippath18)"><g transform="translate(404.33 282.8031)"><path d="M 0 0 L -4.885 0 C -5.376 0 -5.774 -0.398 -5.774 -0.888 L -5.774 -5.774 C -5.774 -6.264 -5.376 -6.662 -4.885 -6.662 L 0 -6.662 C 0.491 -6.662 0.888 -6.264 0.888 -5.774 L 0.888 -0.888 C 0.888 -0.398 0.491 0 0 0" fill="#6a6e71" fill-opacity="1"></path></g></g><g clip-path="url(#clippath18)"><g transform="translate(402.3301 267.4806)"><path d="M 0 0 L -0.888 0 C -1.379 0 -1.777 -0.398 -1.777 -0.888 L -1.777 -1.777 C -1.777 -2.267 -1.379 -2.665 -0.888 -2.665 L 0 -2.665 C 0.491 -2.665 0.888 -2.267 0.888 -1.777 L 0.888 -0.888 C 0.888 -0.398 0.491 0 0 0" fill="#6a6e71" fill-opacity="1"></path></g></g></g><g><text x="340.16" y="453.77" font-size="4.25" font-family="&#39;IBM Plex Mono&#39;,&#39;Courier New&#39;,monospace" fill="#040000" xml:space="preserve">6.</text></g></svg>