<svg xmlns="http://www.w3.org/2000/svg" xmlns:svg="http://www.w3.org/2000/svg" version="1.1" width="95.60" height="28.85" preserveAspectRatio="xMidYMid meet" viewBox="208.03 344.64 95.60 28.85"><defs><clipPath id="clippath0" transform=""><path d="M 0 841.89 L 595.276 841.89 L 595.276 0 L 0 0 Z" fill="none" clip-rule="nonzero"></path></clipPath><clipPath id="clippath1" transform=""><path d="M 0 841.89 L 595.276 841.89 L 595.276 0 L 0 0 Z" fill="none" clip-rule="nonzero"></path></clipPath></defs><g transform="matrix(1 0 0 -1 0 841.89)"><g clip-path="url(#clippath0)"><g transform="translate(211.0302 472.0612)"><path d="M 0 0 L 0 22.19 L 2.735 22.19 L 2.735 9.524 L 3.065 9.524 L 10.183 16.643 L 13.809 16.643 L 5.603 8.667 L 14.006 0 L 10.348 0 L 3.065 7.745 L 2.735 7.745 L 2.735 0 Z" fill="#040000" fill-opacity="1"></path></g></g><g clip-path="url(#clippath0)"><g transform="translate(243.8333 488.7039)"><path d="M 0 0 L 0 -16.643 L -2.735 -16.643 L -2.735 -14.369 L -3.065 -14.369 C -4.218 -16.181 -6.097 -17.236 -8.272 -17.236 C -12.523 -17.236 -15.193 -14.171 -15.193 -9.92 L -15.193 0 L -12.457 0 L -12.457 -9.92 C -12.457 -12.754 -10.81 -14.764 -7.942 -14.764 C -5.141 -14.764 -2.735 -12.622 -2.735 -9.689 L -2.735 0 Z" fill="#040000" fill-opacity="1"></path></g></g><g clip-path="url(#clippath0)"><g transform="translate(248.7023 472.0612)"><path d="M 0 0 L 0 16.643 L 2.636 16.643 L 2.636 14.435 L 2.966 14.435 C 3.889 16.148 5.635 17.302 7.811 17.302 C 10.15 17.302 12.293 16.017 13.248 14.072 L 13.545 14.072 C 14.698 16.017 16.61 17.269 19.114 17.269 C 23.036 17.269 25.837 14.237 25.837 9.92 L 25.837 0 L 23.102 0 L 23.102 9.953 C 23.102 12.787 21.29 14.83 18.785 14.83 C 16.115 14.83 14.237 12.787 14.237 9.953 L 14.237 0 L 11.502 0 L 11.502 9.953 C 11.502 12.886 9.788 14.83 7.217 14.83 C 4.515 14.83 2.735 12.886 2.735 9.953 L 2.735 0 Z" fill="#040000" fill-opacity="1"></path></g></g><g clip-path="url(#clippath0)"><g transform="translate(292.9968 480.3991)"><path d="M 0 0 C 0 3.757 -2.604 6.492 -6.196 6.492 C -9.821 6.492 -12.391 3.757 -12.391 0 C -12.391 -3.79 -9.821 -6.525 -6.196 -6.525 C -2.604 -6.525 0 -3.79 0 0 M -15.127 0 C -15.127 5.24 -11.436 8.964 -6.196 8.964 C -0.989 8.964 2.735 5.24 2.735 0 C 2.735 -5.273 -0.989 -8.997 -6.196 -8.997 C -11.436 -8.997 -15.127 -5.273 -15.127 0" fill="#040000" fill-opacity="1"></path></g></g><g clip-path="url(#clippath0)"><g transform="translate(297.0934 473.4893)"><path d="M 0 0 C 0 1.029 0.707 1.769 1.769 1.769 C 2.798 1.769 3.537 1.029 3.537 0 C 3.537 -1.029 2.798 -1.769 1.769 -1.769 C 0.707 -1.769 0 -1.029 0 0" fill="#040000" fill-opacity="1"></path></g></g></g></svg>